<svg width="166" height="33" viewBox="0 0 166 33" fill="none" xmlns="http://www.w3.org/2000/svg">
<path d="M0 25.7561V0H17.0352V4.48971H5.43969V10.6269H15.9045V15.1166H5.43969V25.7561H0Z" fill="#16A34A"/>
<path d="M24.4392 26.1208C23.208 26.1208 22.1109 25.907 21.1477 25.4794C20.1846 25.0434 19.4224 24.4021 18.8613 23.5553C18.3085 22.7001 18.0321 21.6353 18.0321 20.3609C18.0321 19.2877 18.229 18.3864 18.6226 17.657C19.0162 16.9276 19.5522 16.3407 20.2306 15.8963C20.909 15.452 21.6795 15.1166 22.5422 14.8902C23.4132 14.6639 24.3261 14.5046 25.2809 14.4123C26.4032 14.295 27.3077 14.186 27.9944 14.0854C28.6812 13.9764 29.1795 13.8171 29.4894 13.6075C29.7993 13.3979 29.9542 13.0877 29.9542 12.6768V12.6014C29.9542 11.8049 29.703 11.1886 29.2005 10.7527C28.7063 10.3167 28.0028 10.0987 27.0899 10.0987C26.1268 10.0987 25.3604 10.3125 24.7909 10.7401C24.2214 11.1593 23.8445 11.6875 23.6603 12.3247L18.7105 11.9223C18.9618 10.7485 19.4559 9.73399 20.1929 8.87881C20.93 8.01524 21.8805 7.3529 23.0447 6.89177C24.2172 6.42226 25.574 6.1875 27.115 6.1875C28.1871 6.1875 29.213 6.31326 30.1929 6.56479C31.1812 6.81631 32.0564 7.20617 32.8186 7.73437C33.5891 8.26258 34.1963 8.94169 34.6402 9.77172C35.084 10.5934 35.306 11.5785 35.306 12.7271V25.7561H30.2306V23.0774H30.0799C29.77 23.681 29.3554 24.2134 28.8361 24.6745C28.3169 25.1273 27.6929 25.4836 26.9643 25.7435C26.2356 25.995 25.3939 26.1208 24.4392 26.1208ZM25.9718 22.4234C26.7591 22.4234 27.4542 22.2683 28.0573 21.9581C28.6603 21.6395 29.1335 21.2119 29.4769 20.6753C29.8202 20.1387 29.9919 19.5309 29.9919 18.8518V16.8018C29.8244 16.9108 29.5941 17.0114 29.301 17.1037C29.0162 17.1875 28.6938 17.2671 28.3336 17.3426C27.9735 17.4097 27.6134 17.4726 27.2532 17.5312C26.8931 17.5816 26.5665 17.6277 26.2733 17.6696C25.6452 17.7618 25.0966 17.9085 24.6276 18.1098C24.1586 18.311 23.7943 18.5835 23.5346 18.9272C23.275 19.2626 23.1452 19.6818 23.1452 20.1848C23.1452 20.9143 23.409 21.4718 23.9367 21.8575C24.4727 22.2348 25.1511 22.4234 25.9718 22.4234Z" fill="#16A34A"/>
<path d="M38.0429 25.7561V6.43902H43.2314V9.80945H43.4324C43.7841 8.61052 44.3746 7.70503 45.2037 7.09299C46.0329 6.47256 46.9876 6.16235 48.068 6.16235C48.336 6.16235 48.625 6.17912 48.9349 6.21265C49.2448 6.24619 49.5169 6.2923 49.7515 6.35099V11.1048C49.5002 11.0293 49.1526 10.9623 48.7087 10.9036C48.2649 10.8449 47.8587 10.8155 47.4901 10.8155C46.7029 10.8155 45.9994 10.9874 45.3796 11.3312C44.7682 11.6665 44.2824 12.1361 43.9223 12.7397C43.5706 13.3434 43.3947 14.0393 43.3947 14.8274V25.7561H38.0429Z" fill="#16A34A"/>
<path d="M51.1033 25.7561V6.43902H56.2038V9.84718H56.43C56.832 8.71532 57.502 7.82241 58.44 7.16844C59.378 6.51448 60.5003 6.1875 61.8068 6.1875C63.1301 6.1875 64.2566 6.51867 65.1862 7.18102C66.1159 7.83498 66.7356 8.7237 67.0455 9.84718H67.2465C67.6402 8.74047 68.3521 7.85595 69.3822 7.1936C70.4207 6.52287 71.6477 6.1875 73.0631 6.1875C74.8638 6.1875 76.3252 6.76181 77.4475 7.91044C78.5782 9.05069 79.1435 10.6688 79.1435 12.7649V25.7561H73.8043V13.8213C73.8043 12.7481 73.5196 11.9432 72.95 11.4066C72.3805 10.87 71.6686 10.6018 70.8144 10.6018C69.8428 10.6018 69.0849 10.912 68.5405 11.5324C67.9961 12.1444 67.7239 12.9535 67.7239 13.9596V25.7561H62.5355V13.7081C62.5355 12.7607 62.2633 12.0061 61.7189 11.4444C61.1829 10.8826 60.4752 10.6018 59.5958 10.6018C59.0011 10.6018 58.4651 10.7527 57.9877 11.0545C57.5187 11.3479 57.146 11.763 56.8697 12.2995C56.5933 12.8277 56.4551 13.4482 56.4551 14.1608V25.7561H51.1033Z" fill="#16A34A"/>
<path d="M79.8704 25.7561L84.1417 0H91.1266L89.4181 10.4131H89.7699L99.2171 0H107.358L96.805 11.4695L103.287 25.7561H94.9457L90.8251 16.0976L87.9608 19.1662L86.8553 25.7561H79.8704Z" fill="#16A34A"/>
<path d="M113.041 26.1082C110.98 26.1082 109.272 25.7142 107.915 24.9261C106.558 24.1296 105.604 22.9893 105.051 21.5053C104.498 20.013 104.397 18.2271 104.749 16.1479C105.084 14.1524 105.775 12.4085 106.822 10.9162C107.877 9.42378 109.205 8.26258 110.805 7.43255C112.413 6.60252 114.213 6.1875 116.207 6.1875C117.664 6.1875 118.941 6.41387 120.038 6.86662C121.144 7.31936 122.044 7.97752 122.739 8.84108C123.434 9.70465 123.903 10.7485 124.146 11.9726C124.397 13.1883 124.397 14.5633 124.146 16.0976L123.895 17.7073H106.659L107.262 13.8841H118.116C118.2 13.3308 118.145 12.8445 117.953 12.4253C117.768 11.9977 117.471 11.6665 117.061 11.4318C116.659 11.1886 116.173 11.0671 115.604 11.0671C115.034 11.0671 114.498 11.1886 113.995 11.4318C113.501 11.6749 113.078 12.0145 112.727 12.4505C112.383 12.8864 112.153 13.3979 112.036 13.9848L111.282 18.0091C111.181 18.6296 111.219 19.1829 111.395 19.6692C111.571 20.1555 111.877 20.537 112.312 20.8136C112.748 21.0903 113.309 21.2287 113.995 21.2287C114.464 21.2287 114.908 21.1658 115.327 21.04C115.754 20.9059 116.131 20.713 116.458 20.4615C116.793 20.2016 117.061 19.8872 117.262 19.5183H123.593C123.141 20.8598 122.425 22.0252 121.445 23.0145C120.474 23.9954 119.276 24.7584 117.852 25.3034C116.437 25.8399 114.833 26.1082 113.041 26.1082Z" fill="#16A34A"/>
<path d="M133.149 26.1082C131.089 26.1082 129.38 25.7142 128.023 24.9261C126.666 24.1296 125.712 22.9893 125.159 21.5053C124.606 20.013 124.506 18.2271 124.857 16.1479C125.192 14.1524 125.883 12.4085 126.93 10.9162C127.986 9.42378 129.313 8.26258 130.913 7.43255C132.521 6.60252 134.321 6.1875 136.315 6.1875C137.772 6.1875 139.049 6.41387 140.146 6.86662C141.252 7.31936 142.152 7.97752 142.847 8.84108C143.542 9.70465 144.011 10.7485 144.254 11.9726C144.506 13.1883 144.506 14.5633 144.254 16.0976L144.003 17.7073H126.767L127.37 13.8841H138.224C138.308 13.3308 138.254 12.8445 138.061 12.4253C137.877 11.9977 137.579 11.6665 137.169 11.4318C136.767 11.1886 136.281 11.0671 135.712 11.0671C135.142 11.0671 134.606 11.1886 134.104 11.4318C133.609 11.6749 133.187 12.0145 132.835 12.4505C132.491 12.8864 132.261 13.3979 132.144 13.9848L131.39 18.0091C131.29 18.6296 131.327 19.1829 131.503 19.6692C131.679 20.1555 131.985 20.537 132.42 20.8136C132.856 21.0903 133.417 21.2287 134.104 21.2287C134.573 21.2287 135.017 21.1658 135.435 21.04C135.862 20.9059 136.239 20.713 136.566 20.4615C136.901 20.2016 137.169 19.8872 137.37 19.5183H143.702C143.249 20.8598 142.533 22.0252 141.553 23.0145C140.582 23.9954 139.384 24.7584 137.96 25.3034C136.545 25.8399 134.941 26.1082 133.149 26.1082Z" fill="#16A34A"/>
<path d="M142.905 33L147.352 6.43902H154.237L153.684 9.80945H153.835C154.187 9.15549 154.647 8.55602 155.217 8.01105C155.795 7.4577 156.473 7.01753 157.252 6.69055C158.039 6.35518 158.91 6.1875 159.865 6.1875C161.138 6.1875 162.29 6.52706 163.32 7.20617C164.35 7.88529 165.108 8.95427 165.594 10.4131C166.079 11.872 166.13 13.7668 165.744 16.0976C165.376 18.3277 164.718 20.1764 163.772 21.6437C162.834 23.1109 161.729 24.205 160.455 24.9261C159.191 25.6471 157.872 26.0076 156.498 26.0076C155.594 26.0076 154.811 25.8609 154.149 25.5675C153.487 25.2656 152.955 24.859 152.553 24.3476C152.151 23.8277 151.875 23.2409 151.724 22.5869H151.574L149.865 33H142.905ZM152.528 16.0976C152.378 17.0366 152.365 17.8498 152.491 18.5373C152.625 19.2165 152.888 19.7447 153.282 20.122C153.684 20.4909 154.203 20.6753 154.84 20.6753C155.476 20.6753 156.046 20.495 156.548 20.1345C157.051 19.7656 157.478 19.2416 157.83 18.5625C158.182 17.875 158.441 17.0534 158.609 16.0976C158.759 15.1418 158.772 14.3243 158.646 13.6452C158.521 12.9577 158.265 12.4337 157.88 12.0732C157.495 11.7043 156.984 11.5198 156.347 11.5198C155.711 11.5198 155.129 11.7043 154.601 12.0732C154.082 12.4337 153.642 12.9577 153.282 13.6452C152.93 14.3243 152.679 15.1418 152.528 16.0976Z" fill="#16A34A"/>
</svg>
